<?xml version="1.0" encoding="UTF-8" standalone="no"?>
<svg
   x="0pt"
   y="0pt"
   width="375pt"
   height="375pt"
   viewBox="0 0 375 375"
   version="1.1"
   id="svg1"
   sodipodi:docname="logo-7.svg"
   inkscape:version="1.4 (e7c3feb1, 2024-10-09)"
   inkscape:export-filename="png/logo-6-1000x1000.png"
   inkscape:export-xdpi="192"
   inkscape:export-ydpi="192"
   xmlns:inkscape="http://www.inkscape.org/namespaces/inkscape"
   xmlns:sodipodi="http://sodipodi.sourceforge.net/DTD/sodipodi-0.dtd"
   xmlns="http://www.w3.org/2000/svg"
   xmlns:svg="http://www.w3.org/2000/svg">
  <defs
     id="defs1" />
  <sodipodi:namedview
     id="namedview1"
     pagecolor="#505050"
     bordercolor="#eeeeee"
     borderopacity="1"
     inkscape:showpageshadow="0"
     inkscape:pageopacity="0"
     inkscape:pagecheckerboard="0"
     inkscape:deskcolor="#505050"
     inkscape:document-units="pt"
     inkscape:zoom="0.67682362"
     inkscape:cx="274.8131"
     inkscape:cy="198.72238"
     inkscape:window-width="1512"
     inkscape:window-height="916"
     inkscape:window-x="0"
     inkscape:window-y="38"
     inkscape:window-maximized="0"
     inkscape:current-layer="svg1" />
  <!--Generated by AMDN-->
  <g
     id="Layer 1"
     inkscape:label="Logo">
    <g
       id="Group"
       inkscape:label="K">
      <path
         id="Path 97"
         style="fill:#081c36;fill-opacity:1;fill-rule:nonzero;opacity:1;stroke:none"
         d="M330.65,337.853 C329.532,336.034,328.178,334.345,326.881,332.657 C302.777,301.073,278.674,269.505,254.57,237.934 C235.395,212.805,216.248,187.648,197.017,162.55 C193.531,158.009,191.54,157.769,186.892,160.817 C161.548,177.404,136.232,194.033,110.9,210.62 C89.4927,224.655,68.1006,238.671,46.655,252.621 C45.6378,253.285,44.7183,253.74,43.8712,254.025 C43.8712,254.025,43.8712,311.177,43.8712,311.177 C43.8712,311.177,94.0117,279.875,94.0117,279.875 C97.4852,277.604,100.946,275.337,104.42,273.05 C126.164,258.778,147.922,244.503,169.682,230.243 C175.385,226.511,177.306,226.654,180.553,230.955 C198.768,255.018,216.954,279.11,235.14,303.201 C244.109,315.08,252.961,327.04,262.056,338.817 C262.056,338.817,331.129,338.817,331.129,338.817 C331.003,338.504,330.845,338.178,330.65,337.853 z M330.65,337.853"
         inkscape:label="K-Lower" />
      <path
         id="Path 109"
         style="fill:#7b1f2f;fill-opacity:1;fill-rule:nonzero;opacity:1;stroke:#000000;stroke-linecap:butt;stroke-linejoin:miter;stroke-miterlimit:10;stroke-opacity:1;stroke-width:0;"
         d="m 72.3264,42.0895 c 15.3915,0 27.9286,12.2201 28.4396,27.4873 0.01,0.3214 0.016,0.6441 0.016,0.968 0,0.3481 -0.007,0.6946 -0.019,1.0397 -0.547,15.2338 -13.0692,27.4156 -28.4366,27.4156 -15.7138,0 -28.4527,-12.7374 -28.4552,-28.4506 0,0 0,-0.0047 0,-0.0047 0,0 0,-0.0046 0,-0.0046 0.0025,-15.7133 12.7414,-28.4507 28.4552,-28.4507 z m 28.4266,37.6129 c -0.018,15.7519 -0.034,31.3916 -0.034,44.2116 0,1.816 -0.015,3.647 0.126,5.462 0,0 0,10.926 0,10.926 30.245,-19.639 39.764,-25.866 49.281,-32.08 18.567,-12.131 37.106,-24.2939 55.645,-36.4536 4.617,-3.0202 5.083,-5.177 2.246,-9.9175 -3.149,-5.2497 -6.185,-10.569 -9.574,-15.6637 -2.762,-4.1642 -1.645,-8.622 2.851,-9.7391 0.742,-0.1843 1.576,-0.2777 2.5,-0.2638 6.825,0.1068 13.651,0.1926 20.478,0.2638 26.714,0.2786 53.436,0.3342 80.155,0.5584 6.144,0.0443 7.98,3.874 4.674,9.6202 -13.372,23.2 -26.828,46.3682 -40.256,69.5393 -2.853,4.924 -5.674,9.877 -8.556,14.785 -2.938,4.993 -7.032,5.193 -10.25,0.326 -3.445,-5.222 -6.554,-10.683 -9.97,-15.933 -2.639,-4.073 -5.181,-4.456 -9.29,-1.774 -33.422,21.837 -66.86,43.674 -129.905,84.748 0,0 0,0.101 0,0.101 -8.4715,5.534 -16.9427,11.066 -25.417,16.6 -6.8903,4.513 -13.6515,9.25 -20.7119,13.478 -2.4563,1.465 -5.9298,2.812 -8.4586,2.201 -1.2439,-0.297 -1.9776,-0.993 -2.4153,-1.888 0,0 0,-149.1076 0,-149.1076 0,0 0,-9.1529 0,-9.1529 0,0 0,-0.0047 0,-0.0047 0,0 0,-0.0046 0,-0.0046 0.0025,-15.7133 12.7414,-28.4507 28.4552,-28.4507 15.3915,0 27.9286,12.2201 28.4396,27.4873 0,0 -0.003,2.0077 -0.003,2.0077 z"
         inkscape:label="K-Sup" />
      <path
         id="Path"
         style="fill:#ffffff;fill-opacity:1;fill-rule:evenodd;opacity:1;stroke:#000000;stroke-linecap:butt;stroke-linejoin:miter;stroke-miterlimit:10;stroke-opacity:1;stroke-width:0"
         d="M72.3242,52.5421 C82.2668,52.5421,90.3269,60.6022,90.3269,70.5448 C90.3269,80.4874,82.2668,88.5475,72.3242,88.5475 C62.3816,88.5475,54.3215,80.4874,54.3215,70.5448 C54.3215,60.6022,62.3816,52.5421,72.3242,52.5421 z"
         inkscape:label="Circle" />
    </g>
    <g
       id="g1"
       inkscape:label="Picto">
      <path
         id="Path 59"
         style="fill:#081c36;fill-opacity:0.6;fill-rule:nonzero;opacity:1;stroke:none;"
         d="M239.948,288.71 C239.948,288.71,228.875,288.71,228.875,288.71 C221.565,288.71,215.617,282.763,215.617,275.453 C215.617,275.453,215.617,274.349,215.617,274.349 C215.617,274.349,149.044,274.349,149.044,274.349 C149.044,274.349,149.044,275.453,149.044,275.453 C149.044,282.763,143.097,288.71,135.787,288.71 C135.787,288.71,124.712,288.71,124.712,288.71 C117.401,288.71,111.457,282.763,111.457,275.453 C111.457,275.453,111.457,244.655,111.457,244.655 C111.457,244.476,111.462,244.3,111.474,244.12 C111.471,244.064,111.468,244.001,111.468,243.936 C111.397,241.722,111.212,235.738,115.384,230.257 C111.733,227.417,109.379,222.984,109.379,218.01 C109.379,211.272,114.86,205.791,121.598,205.791 C121.598,205.791,132.4,205.791,132.437,205.794 C132.437,205.794,134.392,200.641,134.392,200.641 C134.959,199.141,135.698,197.736,136.581,196.441 C136.475,196.447,136.373,196.449,136.268,196.449 C136.268,196.449,130.625,196.449,130.625,196.449 C126.382,198.572,121.687,199.685,116.906,199.685 C100,199.685,86.2446,185.93,86.2446,169.024 C86.2446,152.116,100,138.361,116.906,138.361 C124.598,138.361,131.632,141.206,137.022,145.899 C136.908,144.595,136.848,143.286,136.848,141.975 C136.848,116.826,157.311,96.3667,182.458,96.3667 C207.607,96.3667,228.067,116.826,228.067,141.975 C228.067,143.286,228.01,144.595,227.896,145.899 C233.283,141.206,240.32,138.361,248.009,138.361 C264.918,138.361,278.673,152.116,278.673,169.024 C278.673,185.93,264.918,199.685,248.009,199.685 C243.231,199.685,238.533,198.572,234.29,196.449 C234.29,196.449,228.648,196.449,228.648,196.449 C228.454,196.449,228.263,196.441,228.073,196.427 C228.958,197.724,229.7,199.136,230.27,200.641 C230.27,200.641,232.225,205.794,232.225,205.794 C232.262,205.791,243.063,205.791,243.063,205.791 C250.018,205.791,255.26,211.121,255.26,218.189 C255.26,222.66,253.083,227.343,249.238,230.34 C251.512,233.29,253.205,237.035,253.205,242.038 C253.205,242.038,253.205,275.453,253.205,275.453 C253.205,282.763,247.258,288.71,239.948,288.71"
         inkscape:label="Shadow" />
      <path
         id="Path 61"
         style="fill:#ffffff;fill-opacity:1;fill-rule:nonzero;opacity:1;stroke:#000000;stroke-linecap:butt;stroke-linejoin:miter;stroke-miterlimit:10;stroke-opacity:1;stroke-width:0"
         d="M244.372,186.368 C248.615,188.49,253.313,189.603,258.091,189.603 C275,189.603,288.755,175.848,288.755,158.94 C288.755,142.034,275,128.279,258.091,128.279 C250.402,128.279,243.365,131.125,237.978,135.814 C238.092,134.514,238.149,133.205,238.149,131.893 C238.149,106.744,217.689,86.285,192.54,86.285 C167.393,86.285,146.933,106.744,146.933,131.893 C146.933,133.205,146.99,134.514,147.104,135.817 C141.717,131.125,134.68,128.279,126.991,128.279 C110.082,128.279,96.3266,142.034,96.3266,158.94 C96.3266,175.848,110.082,189.603,126.991,189.603 C131.769,189.603,136.467,188.49,140.707,186.368 C140.707,186.368,146.352,186.368,146.352,186.368 C146.455,186.368,146.56,186.365,146.663,186.359 C145.78,187.654,145.043,189.06,144.474,190.556 C144.474,190.556,142.519,195.712,142.519,195.712 C142.482,195.71,131.68,195.71,131.68,195.71 C124.942,195.71,119.461,201.19,119.461,207.928 C119.461,212.902,121.815,217.336,125.468,220.175 C121.294,225.656,121.482,231.64,121.55,233.854 C121.55,233.919,121.553,233.982,121.556,234.039 C121.544,234.218,121.539,234.394,121.539,234.574 C121.539,234.574,121.539,265.371,121.539,265.371 C121.539,272.681,127.486,278.628,134.794,278.628 C134.794,278.628,145.869,278.628,145.869,278.628 C153.179,278.628,159.126,272.681,159.126,265.371 C159.126,265.371,159.126,264.267,159.126,264.267 C159.126,264.267,225.7,264.267,225.7,264.267 C225.7,264.267,225.7,265.371,225.7,265.371 C225.7,272.681,231.647,278.628,238.957,278.628 C238.957,278.628,250.03,278.628,250.03,278.628 C257.34,278.628,263.287,272.681,263.287,265.371 C263.287,265.371,263.287,231.956,263.287,231.956 C263.287,226.951,261.597,223.209,259.32,220.258 C263.165,217.262,265.342,212.575,265.342,208.108 C265.342,201.039,260.1,195.71,253.145,195.71 C253.145,195.71,242.344,195.71,242.307,195.712 C242.307,195.712,240.352,190.559,240.352,190.559 C239.782,189.054,239.04,187.643,238.155,186.345 C238.345,186.359,238.536,186.368,238.73,186.368 C238.73,186.368,244.372,186.368,244.372,186.368"
         inkscape:label="Background" />
      <path
         id="Path 62"
         style="fill:#081c36;fill-opacity:1;fill-rule:nonzero;opacity:1;stroke:none"
         d="M243.547,234.574 C243.547,238.492,240.372,241.668,236.453,241.668 C232.538,241.668,229.359,238.492,229.359,234.574 C229.359,230.655,232.538,227.48,236.453,227.48 C240.372,227.48,243.547,230.655,243.547,234.574 z M148.37,241.668 C144.452,241.668,141.276,238.492,141.276,234.574 C141.276,230.655,144.452,227.48,148.37,227.48 C152.288,227.48,155.467,230.655,155.467,234.574 C155.467,238.492,152.288,241.668,148.37,241.668 z M157.84,195.627 C158.737,193.257,161.047,191.666,163.58,191.666 C163.58,191.666,221.246,191.666,221.246,191.666 C223.782,191.666,226.087,193.257,226.986,195.627 C229.151,201.31,233.858,213.855,234.527,215.369 C234.527,215.369,150.299,215.369,150.299,215.369 C150.968,213.855,154.232,205.088,157.84,195.627 z M253.145,203.777 C253.145,203.777,242.417,203.777,242.417,203.777 C240.158,203.777,238.331,205.581,238.277,207.826 C238.277,207.826,232.811,193.419,232.811,193.419 C230.99,188.613,226.385,185.434,221.246,185.434 C221.246,185.434,163.58,185.434,163.58,185.434 C158.441,185.434,153.839,188.613,152.015,193.419 C152.015,193.419,146.549,207.826,146.549,207.826 C146.495,205.581,144.668,203.777,142.408,203.777 C142.408,203.777,131.68,203.777,131.68,203.777 C129.387,203.777,127.529,205.635,127.529,207.928 C127.529,212.037,130.858,215.369,134.967,215.369 C134.967,215.369,142.912,215.369,142.912,215.369 C142.172,216.118,143.02,215.31,133.692,223.18 C128.516,227.528,129.791,233.416,129.603,234.574 C129.603,238.466,129.603,256.464,129.603,265.371 C129.603,268.239,131.928,270.561,134.794,270.561 C134.794,270.561,145.869,270.561,145.869,270.561 C148.734,270.561,151.059,268.239,151.059,265.371 C151.059,265.371,151.059,256.2,151.059,256.2 C151.059,256.2,233.767,256.2,233.767,256.2 C233.767,256.2,233.767,265.371,233.767,265.371 C233.767,268.239,236.092,270.561,238.957,270.561 C238.957,270.561,250.03,270.561,250.03,270.561 C252.898,270.561,255.22,268.239,255.22,265.371 C255.22,254.447,255.22,244.866,255.22,231.956 C255.22,223.809,247.964,221.501,241.914,215.369 C241.914,215.369,249.859,215.369,249.859,215.369 C258.046,215.369,259.918,203.777,253.145,203.777"
         inkscape:label="Car" />
      <g
         id="g4"
         inkscape:label="Driver">
        <path
           id="Path 63"
           style="fill:#081c36;fill-opacity:1;fill-rule:nonzero;opacity:1;stroke:none"
           d="M192.54,100.965 C209.622,100.965,223.469,114.811,223.469,131.893 C223.469,148.972,209.622,162.818,192.54,162.818 C175.46,162.818,161.613,148.972,161.613,131.893 C161.613,114.811,175.46,100.965,192.54,100.965 z M183.493,168.336 C183.493,168.336,192.54,177.382,192.54,177.382 C192.54,177.382,201.589,168.336,201.589,168.336 C217.951,164.284,230.085,149.507,230.085,131.893 C230.085,111.158,213.276,94.3492,192.54,94.3492 C171.806,94.3492,154.997,111.158,154.997,131.893 C154.997,149.507,167.131,164.284,183.493,168.336"
           inkscape:label="Bubble" />
        <path
           id="Path 64"
           style="fill:#081c36;fill-opacity:1;fill-rule:nonzero;opacity:1;stroke:none"
           d="M192.54,158.792 C202.59,158.792,211.352,153.28,215.968,145.113 C215.968,145.113,215.968,141.855,215.968,141.855 C215.968,140.1,215.009,138.48,213.466,137.638 C211.71,136.682,200.004,129.989,200.004,129.989 C198.2,132.419,196.398,134.147,193.598,135.495 C192.952,135.461,192.306,135.461,191.66,135.495 C188.874,134.152,187.067,132.437,185.255,129.989 C185.255,129.989,171.792,137.638,171.792,137.638 C170.247,138.48,169.288,140.1,169.288,141.858 C169.288,141.858,169.288,145.421,169.288,145.421 C173.949,153.417,182.617,158.792,192.54,158.792"
           inkscape:label="Bust" />
        <path
           id="Path 65"
           style="fill:#081c36;fill-opacity:1;fill-rule:nonzero;opacity:1;stroke:none"
           d="M192.628,132.926 C198.347,132.926,202.986,121.888,202.986,116.169 C202.986,110.449,198.347,105.811,192.628,105.811 C186.908,105.811,182.273,110.449,182.273,116.169 C182.273,121.888,186.908,132.926,192.628,132.926"
           inkscape:label="Head" />
      </g>
      <g
         id="g3"
         inkscape:label="Passenger-R">
        <path
           id="Path 66"
           style="fill:#081c36;fill-opacity:1;fill-rule:nonzero;opacity:1;stroke:none"
           d="M258.091,177.555 C247.81,177.555,239.475,169.223,239.475,158.94 C239.475,148.662,247.81,140.327,258.091,140.327 C268.372,140.327,276.707,148.662,276.707,158.94 C276.707,169.223,268.372,177.555,258.091,177.555 z M258.091,136.343 C245.61,136.343,235.494,146.462,235.494,158.94 C235.494,163.205,236.678,167.195,238.73,170.598 C238.73,170.598,238.73,178.301,238.73,178.301 C238.73,178.301,246.436,178.301,246.436,178.301 C249.839,180.355,253.826,181.539,258.091,181.539 C270.572,181.539,280.688,171.42,280.688,158.94 C280.688,146.462,270.572,136.343,258.091,136.343"
           inkscape:label="Bubble" />
        <path
           id="Path 67"
           style="fill:#081c36;fill-opacity:1;fill-rule:nonzero;opacity:1;stroke:none"
           d="M270.686,162.4 C269.63,161.825,262.582,157.796,262.582,157.796 C261.5,159.258,260.413,160.297,258.729,161.111 C258.339,161.088,257.949,161.088,257.562,161.111 C255.886,160.303,254.796,159.267,253.706,157.796 C253.706,157.796,245.602,162.4,245.602,162.4 C244.674,162.906,244.096,163.88,244.096,164.938 C244.096,164.938,244.096,167.084,244.096,167.084 C246.902,171.898,252.118,175.131,258.091,175.131 C264.141,175.131,269.414,171.816,272.194,166.899 C272.194,166.899,272.194,164.938,272.194,164.938 C272.194,163.88,271.616,162.906,270.686,162.4"
           inkscape:label="Bust" />
        <path
           id="Path 68"
           style="fill:#081c36;fill-opacity:1;fill-rule:nonzero;opacity:1;stroke:none"
           d="M258.145,159.563 C261.586,159.563,264.377,152.919,264.377,149.476 C264.377,146.032,261.586,143.244,258.145,143.244 C254.702,143.244,251.91,146.032,251.91,149.476 C251.91,152.919,254.702,159.563,258.145,159.563"
           inkscape:label="Head" />
      </g>
      <g
         id="g2"
         inkscape:label="Passenger-L">
        <path
           id="Path 69"
           style="fill:#081c36;fill-opacity:1;fill-rule:nonzero;opacity:1;stroke:none"
           d="M108.375,158.94 C108.375,148.662,116.71,140.327,126.991,140.327 C137.272,140.327,145.604,148.662,145.604,158.94 C145.604,169.223,137.272,177.555,126.991,177.555 C116.71,177.555,108.375,169.223,108.375,158.94 z M146.352,178.301 C146.352,178.301,146.352,170.598,146.352,170.598 C148.404,167.195,149.588,163.205,149.588,158.94 C149.588,146.462,139.469,136.343,126.991,136.343 C114.51,136.343,104.391,146.462,104.391,158.94 C104.391,171.42,114.51,181.539,126.991,181.539 C131.254,181.539,135.243,180.355,138.647,178.301 C138.647,178.301,146.352,178.301,146.352,178.301"
           inkscape:label="Bubble" />
        <path
           id="Path 70"
           style="fill:#081c36;fill-opacity:1;fill-rule:nonzero;opacity:1;stroke:none"
           d="M140.986,167.084 C140.986,167.084,140.986,164.938,140.986,164.938 C140.986,163.88,140.408,162.906,139.48,162.4 C139.48,162.4,131.376,157.796,131.376,157.796 C130.283,159.267,129.196,160.303,127.52,161.111 C127.13,161.088,126.743,161.088,126.353,161.111 C124.669,160.297,123.582,159.258,122.498,157.796 C122.498,157.796,115.449,161.825,114.393,162.4 C113.466,162.906,112.888,163.88,112.888,164.938 C112.888,164.938,112.888,166.899,112.888,166.899 C115.668,171.816,120.941,175.131,126.991,175.131 C132.964,175.131,138.18,171.898,140.986,167.084"
           inkscape:label="Bust" />
        <path
           id="Path 71"
           style="fill:#081c36;fill-opacity:1;fill-rule:nonzero;opacity:1;stroke:none"
           d="M126.937,159.563 C130.38,159.563,133.172,152.919,133.172,149.476 C133.172,146.032,130.38,143.244,126.937,143.244 C123.494,143.244,120.702,146.032,120.702,149.476 C120.702,152.919,123.494,159.563,126.937,159.563"
           inkscape:label="Head" />
      </g>
    </g>
  </g>
</svg>
