<svg xmlns="http://www.w3.org/2000/svg" xmlns:xlink="http://www.w3.org/1999/xlink" width="500" zoomAndPan="magnify" viewBox="0 0 375 374.999991" height="500" preserveAspectRatio="xMidYMid meet" version="1.0"><defs><g/><clipPath id="ee97ffeec5"><path d="M 277.171875 180.765625 L 308 180.765625 L 308 208.558594 L 277.171875 208.558594 Z M 277.171875 180.765625 " clip-rule="nonzero"/></clipPath><clipPath id="0a7ed26a27"><path d="M 292.578125 180.765625 C 284.070312 180.765625 277.171875 186.988281 277.171875 194.660156 C 277.171875 202.335938 284.070312 208.558594 292.578125 208.558594 C 301.082031 208.558594 307.980469 202.335938 307.980469 194.660156 C 307.980469 186.988281 301.082031 180.765625 292.578125 180.765625 Z M 292.578125 180.765625 " clip-rule="nonzero"/></clipPath><clipPath id="78f0dc1112"><path d="M 279.007812 182.566406 L 306.007812 182.566406 L 306.007812 209.566406 L 279.007812 209.566406 Z M 279.007812 182.566406 " clip-rule="nonzero"/></clipPath><clipPath id="25c9a4f49b"><path d="M 279.007812 183 L 306 183 L 306 209 L 279.007812 209 Z M 279.007812 183 " clip-rule="nonzero"/></clipPath><clipPath id="98a254253d"><path d="M 277.171875 180.765625 L 307.171875 180.765625 L 307.171875 210.765625 L 277.171875 210.765625 Z M 277.171875 180.765625 " clip-rule="nonzero"/></clipPath><clipPath id="7e8669f9e7"><path d="M 288.714844 188.003906 L 295.875 188.003906 L 295.875 195.164062 L 288.714844 195.164062 Z M 288.714844 188.003906 " clip-rule="nonzero"/></clipPath></defs><rect x="-37.5" width="450" fill="#ffffff" y="-37.499999" height="449.999989" fill-opacity="1"/><rect x="-37.5" width="450" fill="#ffffff" y="-37.499999" height="449.999989" fill-opacity="1"/><path fill="#750000" d="M 99.894531 138.050781 C 98.546875 139.882812 95.242188 144.304688 92.589844 147.902344 L 87.726562 154.425781 L 87.726562 168.953125 C 87.75 180.421875 87.792969 183.414062 88.003906 183.117188 C 88.148438 182.929688 88.863281 181.917969 89.601562 180.84375 C 92.507812 176.71875 97.328125 172.320312 101.789062 169.773438 L 102.460938 169.394531 L 102.460938 152.070312 C 102.460938 142.535156 102.441406 134.746094 102.398438 134.746094 C 102.359375 134.746094 101.242188 136.242188 99.894531 138.050781 Z M 99.894531 138.050781 " fill-opacity="1" fill-rule="nonzero"/><path fill="#750000" d="M 118.671875 169.289062 C 104.082031 170.488281 91.644531 180.992188 88.023438 195.117188 C 86.71875 200.148438 86.550781 206.019531 87.539062 210.355469 L 87.769531 211.367188 L 95.453125 211.367188 C 101.914062 211.367188 103.117188 211.324219 103.03125 211.070312 C 101.894531 208.125 101.453125 204.671875 101.808594 201.621094 C 102.632812 194.800781 106.628906 189.074219 112.734375 186.023438 C 114.585938 185.074219 117.472656 184.253906 119.554688 184.042969 L 121.175781 183.898438 L 125.238281 178.421875 C 131.152344 170.46875 131.089844 170.550781 130.921875 170.46875 C 130.457031 170.171875 126.3125 169.4375 124.183594 169.265625 C 121.492188 169.035156 121.535156 169.035156 118.671875 169.289062 Z M 118.671875 169.289062 " fill-opacity="1" fill-rule="nonzero"/><path fill="#750000" d="M 115.175781 190.085938 C 113.199219 191.054688 111.21875 192.503906 110.207031 193.726562 C 108.902344 195.304688 107.765625 197.242188 107.304688 198.632812 L 106.863281 199.976562 L 115.199219 211.34375 L 124.4375 211.367188 C 131.785156 211.367188 133.617188 211.300781 133.46875 211.09375 C 132.964844 210.480469 118.332031 190.78125 117.851562 190.0625 C 117.554688 189.621094 117.195312 189.285156 117.070312 189.265625 C 116.964844 189.265625 116.101562 189.621094 115.175781 190.085938 Z M 115.175781 190.085938 " fill-opacity="1" fill-rule="nonzero"/><g clip-path="url(#ee97ffeec5)"><g clip-path="url(#0a7ed26a27)"><path fill="#3b4655" d="M 277.171875 180.765625 L 308.003906 180.765625 L 308.003906 208.558594 L 277.171875 208.558594 Z M 277.171875 180.765625 " fill-opacity="1" fill-rule="nonzero"/></g></g><g fill="#3b4655" fill-opacity="1"><g transform="translate(134.914858, 212.075525)"><g><path d="M 15.515625 0.1875 C 14.660156 0.1875 13.613281 0.1875 12.375 0.1875 C 11.144531 0.1875 9.878906 0.175781 8.578125 0.15625 C 7.285156 0.144531 6.078125 0.125 4.953125 0.09375 C 3.835938 0.0625 2.960938 0.03125 2.328125 0 C 1.941406 -0.03125 1.613281 -0.171875 1.34375 -0.421875 C 1.082031 -0.679688 0.953125 -1 0.953125 -1.375 C 0.984375 -4.0625 1.03125 -6.8125 1.09375 -9.625 C 1.15625 -12.445312 1.238281 -15.226562 1.34375 -17.96875 C 1.457031 -20.707031 1.585938 -23.273438 1.734375 -25.671875 C 1.878906 -28.078125 2.03125 -30.203125 2.1875 -32.046875 C 2.25 -32.390625 2.40625 -32.664062 2.65625 -32.875 C 2.90625 -33.082031 3.207031 -33.203125 3.5625 -33.234375 C 4.539062 -33.328125 5.519531 -33.378906 6.5 -33.390625 C 7.476562 -33.410156 8.601562 -33.421875 9.875 -33.421875 C 10.757812 -33.421875 11.550781 -33.40625 12.25 -33.375 C 12.945312 -33.34375 13.675781 -33.296875 14.4375 -33.234375 C 14.875 -33.203125 15.226562 -33.023438 15.5 -32.703125 C 15.769531 -32.390625 15.859375 -32.039062 15.765625 -31.65625 C 15.285156 -29.476562 14.851562 -27.453125 14.46875 -25.578125 C 14.09375 -23.710938 13.796875 -21.878906 13.578125 -20.078125 C 13.359375 -18.273438 13.25 -16.359375 13.25 -14.328125 C 13.25 -11.140625 15.320312 -9.546875 19.46875 -9.546875 C 21.113281 -9.546875 22.507812 -9.703125 23.65625 -10.015625 C 24.8125 -10.328125 25.835938 -10.847656 26.734375 -11.578125 C 27.640625 -12.304688 28.488281 -13.304688 29.28125 -14.578125 C 29.632812 -15.109375 30.085938 -15.328125 30.640625 -15.234375 C 31.191406 -15.140625 31.484375 -14.742188 31.515625 -14.046875 C 31.609375 -13.285156 31.695312 -12.34375 31.78125 -11.21875 C 31.863281 -10.101562 31.9375 -8.925781 32 -7.6875 C 32.0625 -6.457031 32.113281 -5.28125 32.15625 -4.15625 C 32.207031 -3.03125 32.25 -2.085938 32.28125 -1.328125 C 32.3125 -0.984375 32.207031 -0.679688 31.96875 -0.421875 C 31.726562 -0.171875 31.421875 -0.03125 31.046875 0 C 30.253906 0.03125 29.207031 0.0625 27.90625 0.09375 C 26.613281 0.125 25.222656 0.144531 23.734375 0.15625 C 22.242188 0.175781 20.78125 0.1875 19.34375 0.1875 C 17.90625 0.1875 16.628906 0.1875 15.515625 0.1875 Z M 15.515625 0.1875 "/></g></g></g><g fill="#3b4655" fill-opacity="1"><g transform="translate(167.808574, 212.075525)"><g><path d="M 6.59375 0.1875 C 5.925781 0.1875 5.085938 0.160156 4.078125 0.109375 C 3.066406 0.0664062 2.242188 0.03125 1.609375 0 C 1.203125 -0.0625 0.878906 -0.226562 0.640625 -0.5 C 0.398438 -0.769531 0.328125 -1.109375 0.421875 -1.515625 C 0.898438 -4.367188 1.507812 -7.25 2.25 -10.15625 C 3 -13.070312 3.804688 -15.890625 4.671875 -18.609375 C 5.546875 -21.328125 6.441406 -23.875 7.359375 -26.25 C 8.273438 -28.625 9.144531 -30.679688 9.96875 -32.421875 C 10.125 -32.859375 10.503906 -33.128906 11.109375 -33.234375 C 11.710938 -33.296875 12.429688 -33.34375 13.265625 -33.375 C 14.109375 -33.40625 14.945312 -33.421875 15.78125 -33.421875 C 16.625 -33.421875 17.34375 -33.421875 17.9375 -33.421875 C 18.539062 -33.421875 19.269531 -33.421875 20.125 -33.421875 C 20.976562 -33.421875 21.835938 -33.40625 22.703125 -33.375 C 23.578125 -33.34375 24.316406 -33.296875 24.921875 -33.234375 C 25.523438 -33.128906 25.90625 -32.859375 26.0625 -32.421875 C 26.882812 -30.679688 27.742188 -28.625 28.640625 -26.25 C 29.546875 -23.875 30.429688 -21.316406 31.296875 -18.578125 C 32.171875 -15.847656 32.976562 -13.023438 33.71875 -10.109375 C 34.46875 -7.203125 35.078125 -4.320312 35.546875 -1.46875 C 35.648438 -1.0625 35.585938 -0.722656 35.359375 -0.453125 C 35.140625 -0.179688 34.828125 -0.03125 34.421875 0 C 33.972656 0.03125 33.398438 0.0625 32.703125 0.09375 C 32.003906 0.125 31.316406 0.144531 30.640625 0.15625 C 29.960938 0.175781 29.398438 0.1875 28.953125 0.1875 C 28.546875 0.1875 28.015625 0.175781 27.359375 0.15625 C 26.710938 0.144531 26.054688 0.125 25.390625 0.09375 C 24.734375 0.0625 24.164062 0.03125 23.6875 0 C 23.375 -0.0625 23.085938 -0.210938 22.828125 -0.453125 C 22.578125 -0.691406 22.46875 -1.015625 22.5 -1.421875 C 22.5625 -2.179688 22.578125 -2.992188 22.546875 -3.859375 C 22.515625 -4.734375 22.46875 -5.519531 22.40625 -6.21875 C 22.28125 -7.101562 21.875 -7.71875 21.1875 -8.0625 C 20.507812 -8.414062 19.742188 -8.609375 18.890625 -8.640625 L 17.09375 -8.640625 C 16.269531 -8.609375 15.523438 -8.398438 14.859375 -8.015625 C 14.191406 -7.640625 13.78125 -7.039062 13.625 -6.21875 C 13.53125 -5.550781 13.472656 -4.78125 13.453125 -3.90625 C 13.441406 -3.039062 13.46875 -2.195312 13.53125 -1.375 C 13.5625 -1 13.445312 -0.691406 13.1875 -0.453125 C 12.9375 -0.210938 12.640625 -0.0625 12.296875 0 C 11.816406 0.03125 11.222656 0.0625 10.515625 0.09375 C 9.804688 0.125 9.101562 0.144531 8.40625 0.15625 C 7.707031 0.175781 7.101562 0.1875 6.59375 0.1875 Z M 17.5625 -13.25 L 18.46875 -13.25 C 19.195312 -13.28125 19.722656 -13.457031 20.046875 -13.78125 C 20.378906 -14.113281 20.46875 -14.582031 20.3125 -15.1875 C 20.1875 -16.363281 19.972656 -17.640625 19.671875 -19.015625 C 19.367188 -20.390625 19.0625 -21.660156 18.75 -22.828125 C 18.53125 -23.585938 18.273438 -23.96875 17.984375 -23.96875 C 17.703125 -23.96875 17.4375 -23.585938 17.1875 -22.828125 C 16.894531 -21.660156 16.609375 -20.390625 16.328125 -19.015625 C 16.046875 -17.640625 15.828125 -16.363281 15.671875 -15.1875 C 15.503906 -14.582031 15.59375 -14.113281 15.9375 -13.78125 C 16.289062 -13.457031 16.832031 -13.28125 17.5625 -13.25 Z M 17.5625 -13.25 "/></g></g></g><g fill="#3b4655" fill-opacity="1"><g transform="translate(203.78756, 212.075525)"><g><path d="M 29.28125 0.375 C 27.988281 0.375 26.796875 0.03125 25.703125 -0.65625 C 24.609375 -1.351562 23.601562 -2.25 22.6875 -3.34375 C 21.769531 -4.4375 20.929688 -5.597656 20.171875 -6.828125 C 19.410156 -8.066406 18.695312 -9.234375 18.03125 -10.328125 C 17.375 -11.421875 16.75 -12.3125 16.15625 -13 C 15.570312 -13.695312 15 -14.046875 14.4375 -14.046875 C 13.957031 -14.046875 13.613281 -13.707031 13.40625 -13.03125 C 13.195312 -12.351562 13.078125 -11.488281 13.046875 -10.4375 C 13.046875 -9.613281 13.09375 -8.648438 13.1875 -7.546875 C 13.289062 -6.441406 13.40625 -5.359375 13.53125 -4.296875 C 13.65625 -3.234375 13.75 -2.335938 13.8125 -1.609375 C 13.875 -1.140625 13.769531 -0.769531 13.5 -0.5 C 13.226562 -0.226562 12.875 -0.0625 12.4375 0 C 11.738281 0.09375 10.859375 0.144531 9.796875 0.15625 C 8.742188 0.175781 7.882812 0.1875 7.21875 0.1875 C 6.613281 0.1875 5.828125 0.175781 4.859375 0.15625 C 3.898438 0.144531 3.054688 0.09375 2.328125 0 C 1.941406 -0.0625 1.613281 -0.21875 1.34375 -0.46875 C 1.082031 -0.726562 0.953125 -1.046875 0.953125 -1.421875 C 0.953125 -5.222656 1.015625 -9.019531 1.140625 -12.8125 C 1.265625 -16.613281 1.429688 -20.175781 1.640625 -23.5 C 1.847656 -26.820312 2.0625 -29.65625 2.28125 -32 C 2.3125 -32.34375 2.441406 -32.617188 2.671875 -32.828125 C 2.910156 -33.035156 3.207031 -33.171875 3.5625 -33.234375 C 3.96875 -33.296875 4.550781 -33.34375 5.3125 -33.375 C 6.070312 -33.40625 6.628906 -33.421875 6.984375 -33.421875 C 7.390625 -33.421875 7.875 -33.40625 8.4375 -33.375 C 9.007812 -33.34375 9.535156 -33.296875 10.015625 -33.234375 C 10.710938 -33.171875 11.28125 -32.992188 11.71875 -32.703125 C 12.164062 -32.421875 12.644531 -31.960938 13.15625 -31.328125 C 13.5625 -30.597656 14.03125 -29.734375 14.5625 -28.734375 C 15.101562 -27.742188 15.691406 -26.722656 16.328125 -25.671875 C 16.960938 -24.628906 17.59375 -23.65625 18.21875 -22.75 C 18.851562 -21.851562 19.457031 -21.117188 20.03125 -20.546875 C 20.601562 -19.984375 21.109375 -19.703125 21.546875 -19.703125 C 22.023438 -19.703125 22.332031 -20.128906 22.46875 -20.984375 C 22.613281 -21.835938 22.65625 -22.90625 22.59375 -24.1875 C 22.53125 -25.46875 22.40625 -26.765625 22.21875 -28.078125 C 22.03125 -29.390625 21.835938 -30.519531 21.640625 -31.46875 C 21.546875 -31.914062 21.632812 -32.304688 21.90625 -32.640625 C 22.175781 -32.972656 22.53125 -33.171875 22.96875 -33.234375 C 23.570312 -33.296875 24.285156 -33.34375 25.109375 -33.375 C 25.929688 -33.40625 26.628906 -33.421875 27.203125 -33.421875 C 27.734375 -33.421875 28.414062 -33.40625 29.25 -33.375 C 30.09375 -33.34375 30.832031 -33.296875 31.46875 -33.234375 C 31.820312 -33.203125 32.128906 -33.070312 32.390625 -32.84375 C 32.660156 -32.625 32.8125 -32.34375 32.84375 -32 C 33.132812 -28.832031 33.394531 -25.046875 33.625 -20.640625 C 33.863281 -16.242188 34 -11.40625 34.03125 -6.125 C 34.0625 -4.289062 33.722656 -2.75 33.015625 -1.5 C 32.304688 -0.25 31.0625 0.375 29.28125 0.375 Z M 29.28125 0.375 "/></g></g></g><g fill="#3b4655" fill-opacity="1"><g transform="translate(238.769768, 212.075525)"><g><path d="M 16.515625 0.375 C 15.441406 0.375 14.222656 0.363281 12.859375 0.34375 C 11.503906 0.332031 10.128906 0.300781 8.734375 0.25 C 7.335938 0.207031 6.0625 0.160156 4.90625 0.109375 C 3.757812 0.0664062 2.867188 0.03125 2.234375 0 C 1.878906 -0.03125 1.578125 -0.179688 1.328125 -0.453125 C 1.078125 -0.722656 0.953125 -1.0625 0.953125 -1.46875 C 0.953125 -5.238281 1.015625 -9.019531 1.140625 -12.8125 C 1.265625 -16.613281 1.421875 -20.175781 1.609375 -23.5 C 1.804688 -26.820312 2 -29.65625 2.1875 -32 C 2.21875 -32.34375 2.347656 -32.625 2.578125 -32.84375 C 2.816406 -33.070312 3.128906 -33.203125 3.515625 -33.234375 C 5.222656 -33.328125 7.097656 -33.378906 9.140625 -33.390625 C 11.179688 -33.410156 13.117188 -33.421875 14.953125 -33.421875 C 18.753906 -33.421875 22.09375 -32.695312 24.96875 -31.25 C 27.84375 -29.8125 30.09375 -27.707031 31.71875 -24.9375 C 33.351562 -22.175781 34.171875 -18.800781 34.171875 -14.8125 C 34.171875 -11.164062 33.484375 -8.226562 32.109375 -6 C 30.734375 -3.769531 28.734375 -2.148438 26.109375 -1.140625 C 23.484375 -0.128906 20.285156 0.375 16.515625 0.375 Z M 15 -10.015625 C 15.25 -9.984375 15.5 -9.96875 15.75 -9.96875 C 16.007812 -9.96875 16.265625 -9.96875 16.515625 -9.96875 C 18.097656 -9.96875 19.425781 -10.394531 20.5 -11.25 C 21.582031 -12.101562 22.125 -13.476562 22.125 -15.375 C 22.125 -18.039062 21.578125 -20.125 20.484375 -21.625 C 19.390625 -23.125 17.910156 -23.875 16.046875 -23.875 L 14.8125 -23.875 C 13.863281 -23.8125 13.359375 -23.226562 13.296875 -22.125 C 13.265625 -20.601562 13.25 -18.921875 13.25 -17.078125 C 13.25 -15.242188 13.265625 -13.570312 13.296875 -12.0625 C 13.359375 -10.695312 13.925781 -10.015625 15 -10.015625 Z M 15 -10.015625 "/></g></g></g><g fill="#3b4655" fill-opacity="1"><g transform="translate(273.751976, 212.075525)"><g><path d="M 18.078125 0.375 C 14.628906 0.375 11.582031 -0.113281 8.9375 -1.09375 C 6.300781 -2.070312 4.242188 -3.703125 2.765625 -5.984375 C 1.296875 -8.265625 0.5625 -11.332031 0.5625 -15.1875 C 0.5625 -19.019531 1.296875 -22.300781 2.765625 -25.03125 C 4.242188 -27.769531 6.296875 -29.882812 8.921875 -31.375 C 11.546875 -32.863281 14.597656 -33.609375 18.078125 -33.609375 C 21.597656 -33.609375 24.671875 -32.867188 27.296875 -31.390625 C 29.921875 -29.921875 31.957031 -27.8125 33.40625 -25.0625 C 34.863281 -22.3125 35.59375 -19.019531 35.59375 -15.1875 C 35.59375 -11.332031 34.859375 -8.265625 33.390625 -5.984375 C 31.921875 -3.703125 29.875 -2.070312 27.25 -1.09375 C 24.625 -0.113281 21.566406 0.375 18.078125 0.375 Z M 18.078125 -9.34375 C 19.566406 -9.34375 20.769531 -9.828125 21.6875 -10.796875 C 22.601562 -11.765625 23.0625 -13.390625 23.0625 -15.671875 C 23.0625 -17.210938 22.851562 -18.597656 22.4375 -19.828125 C 22.03125 -21.066406 21.457031 -22.050781 20.71875 -22.78125 C 19.976562 -23.507812 19.097656 -23.875 18.078125 -23.875 C 17.066406 -23.875 16.1875 -23.507812 15.4375 -22.78125 C 14.695312 -22.050781 14.117188 -21.066406 13.703125 -19.828125 C 13.296875 -18.597656 13.09375 -17.210938 13.09375 -15.671875 C 13.09375 -13.390625 13.5625 -11.765625 14.5 -10.796875 C 15.4375 -9.828125 16.628906 -9.34375 18.078125 -9.34375 Z M 18.078125 -9.34375 "/></g></g></g><g clip-path="url(#78f0dc1112)"><path fill="#ffffff" d="M 306.136719 196.128906 C 306.136719 197.019531 306.046875 197.902344 305.875 198.777344 C 305.699219 199.648438 305.445312 200.496094 305.101562 201.320312 C 304.761719 202.144531 304.34375 202.925781 303.847656 203.664062 C 303.355469 204.40625 302.792969 205.089844 302.164062 205.722656 C 301.53125 206.351562 300.847656 206.914062 300.105469 207.40625 C 299.367188 207.902344 298.585938 208.320312 297.761719 208.660156 C 296.9375 209.003906 296.089844 209.257812 295.21875 209.433594 C 294.34375 209.605469 293.460938 209.695312 292.570312 209.695312 C 291.679688 209.695312 290.796875 209.605469 289.925781 209.433594 C 289.050781 209.257812 288.203125 209.003906 287.378906 208.660156 C 286.558594 208.320312 285.777344 207.902344 285.035156 207.40625 C 284.292969 206.914062 283.609375 206.351562 282.980469 205.722656 C 282.351562 205.089844 281.789062 204.40625 281.292969 203.664062 C 280.796875 202.925781 280.378906 202.144531 280.039062 201.320312 C 279.699219 200.496094 279.441406 199.648438 279.265625 198.777344 C 279.09375 197.902344 279.007812 197.019531 279.007812 196.128906 C 279.007812 195.238281 279.09375 194.355469 279.265625 193.484375 C 279.441406 192.609375 279.699219 191.761719 280.039062 190.9375 C 280.378906 190.117188 280.796875 189.335938 281.292969 188.59375 C 281.789062 187.851562 282.351562 187.167969 282.980469 186.539062 C 283.609375 185.90625 284.292969 185.347656 285.035156 184.851562 C 285.777344 184.355469 286.558594 183.9375 287.378906 183.597656 C 288.203125 183.257812 289.050781 183 289.925781 182.824219 C 290.796875 182.652344 291.679688 182.566406 292.570312 182.566406 C 293.460938 182.566406 294.34375 182.652344 295.21875 182.824219 C 296.089844 183 296.9375 183.257812 297.761719 183.597656 C 298.585938 183.9375 299.367188 184.355469 300.105469 184.851562 C 300.847656 185.347656 301.53125 185.90625 302.164062 186.539062 C 302.792969 187.167969 303.355469 187.851562 303.847656 188.59375 C 304.34375 189.335938 304.761719 190.117188 305.101562 190.9375 C 305.445312 191.761719 305.699219 192.609375 305.875 193.484375 C 306.046875 194.355469 306.136719 195.238281 306.136719 196.128906 Z M 306.136719 196.128906 " fill-opacity="1" fill-rule="nonzero"/></g><path fill="#3b4655" d="M 292.570312 184.199219 C 299.171875 184.199219 304.492188 189.546875 304.492188 196.128906 C 304.492188 202.730469 299.171875 208.050781 292.570312 208.050781 C 285.988281 208.050781 280.640625 202.730469 280.640625 196.128906 C 280.640625 189.546875 285.988281 184.199219 292.570312 184.199219 Z M 292.570312 185.152344 C 298.625 185.152344 303.539062 190.066406 303.539062 196.128906 C 303.539062 202.183594 298.625 207.097656 292.570312 207.097656 C 286.507812 207.097656 281.59375 202.183594 281.59375 196.128906 C 281.59375 190.066406 286.507812 185.152344 292.570312 185.152344 Z M 292.570312 185.152344 " fill-opacity="1" fill-rule="evenodd"/><g clip-path="url(#25c9a4f49b)"><path fill="#3b4655" d="M 292.570312 183.5 C 299.542969 183.5 305.191406 189.164062 305.191406 196.128906 C 305.191406 203.101562 299.542969 208.75 292.570312 208.75 C 285.605469 208.75 279.941406 203.101562 279.941406 196.128906 C 279.941406 189.164062 285.605469 183.5 292.570312 183.5 Z M 292.570312 184.199219 C 299.171875 184.199219 304.492188 189.546875 304.492188 196.128906 C 304.492188 202.730469 299.171875 208.050781 292.570312 208.050781 C 285.988281 208.050781 280.640625 202.730469 280.640625 196.128906 C 280.640625 189.546875 285.988281 184.199219 292.570312 184.199219 Z M 292.570312 184.199219 " fill-opacity="1" fill-rule="evenodd"/></g><path fill="#3b4655" d="M 296.800781 195.398438 C 296.710938 195.398438 296.640625 195.324219 296.640625 195.234375 L 296.640625 193.039062 C 296.640625 192.769531 296.402344 192.550781 296.117188 192.550781 L 295.582031 192.550781 C 295.492188 192.550781 295.417969 192.476562 295.417969 192.386719 C 295.417969 192.296875 295.492188 192.222656 295.582031 192.222656 L 296.117188 192.222656 C 296.582031 192.222656 296.964844 192.589844 296.964844 193.039062 L 296.964844 195.234375 C 296.964844 195.324219 296.890625 195.398438 296.800781 195.398438 Z M 288.339844 195.257812 C 288.25 195.257812 288.175781 195.183594 288.175781 195.097656 L 288.175781 193.039062 C 288.175781 192.589844 288.550781 192.222656 289.015625 192.222656 L 289.558594 192.222656 C 289.648438 192.222656 289.722656 192.296875 289.722656 192.386719 C 289.722656 192.476562 289.648438 192.550781 289.558594 192.550781 L 289.015625 192.550781 C 288.730469 192.550781 288.503906 192.769531 288.503906 193.039062 L 288.503906 195.097656 C 288.503906 195.183594 288.429688 195.257812 288.339844 195.257812 Z M 288.339844 195.257812 " fill-opacity="1" fill-rule="evenodd"/><path fill="#3b4655" d="M 290.316406 197.644531 C 290.308594 197.644531 290.292969 197.644531 290.285156 197.644531 C 290.210938 197.625 290.164062 197.570312 290.152344 197.496094 C 290.136719 197.226562 290.015625 196.578125 289.691406 196.332031 L 289.609375 196.660156 C 289.59375 196.714844 289.542969 196.765625 289.480469 196.773438 C 289.421875 196.789062 289.355469 196.765625 289.324219 196.714844 C 289.316406 196.707031 289.082031 196.414062 288.699219 196.277344 L 288.859375 196.59375 C 288.894531 196.648438 288.886719 196.722656 288.835938 196.78125 C 288.789062 196.828125 288.714844 196.84375 288.648438 196.8125 C 288.527344 196.757812 288.203125 196.632812 287.933594 196.625 C 287.957031 196.835938 287.898438 197.1875 287.476562 197.59375 C 287.4375 197.636719 287.386719 197.652344 287.339844 197.644531 C 287.289062 197.636719 287.242188 197.601562 287.214844 197.554688 C 286.523438 196.269531 286.980469 195.601562 287.324219 195.324219 C 287.648438 195.039062 288.152344 194.894531 288.699219 194.917969 C 289.226562 194.941406 289.738281 195.113281 290.113281 195.40625 C 290.765625 195.917969 290.894531 196.707031 290.464844 197.554688 C 290.429688 197.609375 290.375 197.644531 290.316406 197.644531 Z M 288.59375 195.242188 C 288.183594 195.242188 287.785156 195.355469 287.527344 195.574219 C 287.121094 195.917969 287.070312 196.488281 287.402344 197.203125 C 287.703125 196.828125 287.589844 196.59375 287.574219 196.570312 C 287.542969 196.527344 287.542969 196.472656 287.558594 196.414062 C 287.574219 196.367188 287.625 196.332031 287.679688 196.316406 C 287.898438 196.277344 288.167969 196.316406 288.378906 196.382812 L 288.242188 196.121094 C 288.21875 196.074219 288.21875 196.007812 288.25 195.957031 C 288.28125 195.910156 288.339844 195.878906 288.40625 195.886719 C 288.828125 195.917969 289.160156 196.128906 289.355469 196.300781 L 289.421875 196.054688 C 289.4375 196.015625 289.460938 195.984375 289.503906 195.957031 C 289.535156 195.933594 289.585938 195.933594 289.625 195.941406 C 290.03125 196.0625 290.242188 196.488281 290.359375 196.855469 C 290.4375 196.382812 290.285156 195.964844 289.902344 195.664062 C 289.550781 195.390625 289.0625 195.242188 288.59375 195.242188 Z M 288.59375 195.242188 " fill-opacity="1" fill-rule="evenodd"/><path stroke-linecap="butt" transform="matrix(0.00813704, 0, 0, 0.00813704, 279.006519, 182.564988)" fill-opacity="1" fill="#3b4655" fill-rule="evenodd" stroke-linejoin="miter" d="M 1207.98399 2059.141513 C 1156.137765 2059.141513 1107.171885 2041.859438 1071.167562 2011.135749 C 1028.92249 1976.091541 1006.839839 1926.165547 1006.839839 1867.118457 L 1006.839839 1833.034365 C 1006.839839 1821.993039 1015.960934 1812.871944 1027.00226 1812.871944 C 1038.043585 1812.871944 1047.16468 1821.993039 1047.16468 1833.034365 L 1047.16468 1867.118457 C 1047.16468 1970.810907 1130.214652 2018.816671 1207.98399 2018.816671 C 1286.233385 2018.816671 1369.763415 1970.810907 1369.763415 1867.118457 L 1369.763415 1833.034365 C 1369.763415 1821.993039 1378.88451 1812.871944 1389.925836 1812.871944 C 1400.967161 1812.871944 1410.088256 1821.993039 1410.088256 1833.034365 L 1410.088256 1867.118457 C 1410.088256 1926.165547 1388.005605 1976.091541 1345.760533 2011.135749 C 1310.236267 2041.859438 1260.79033 2059.141513 1207.98399 2059.141513 Z M 1207.98399 2059.141513 " stroke="#4d4d4d" stroke-width="3" stroke-opacity="1" stroke-miterlimit="4"/><path fill="#3b4655" d="M 291.96875 203.046875 L 285.785156 203.046875 C 285.695312 203.046875 285.621094 202.972656 285.621094 202.882812 L 285.621094 201.664062 C 285.621094 200.402344 286.648438 199.382812 287.898438 199.382812 L 288.257812 199.382812 C 288.347656 199.382812 288.421875 199.457031 288.421875 199.546875 L 288.421875 199.976562 C 288.421875 200.289062 288.648438 200.425781 288.875 200.425781 C 289.113281 200.425781 289.339844 200.289062 289.339844 199.976562 L 289.339844 199.546875 C 289.339844 199.457031 289.414062 199.382812 289.503906 199.382812 L 289.851562 199.382812 C 291.113281 199.382812 292.132812 200.402344 292.132812 201.664062 L 292.132812 202.882812 C 292.132812 202.972656 292.058594 203.046875 291.96875 203.046875 Z M 285.949219 202.71875 L 291.804688 202.71875 L 291.804688 201.664062 C 291.804688 200.582031 290.933594 199.710938 289.851562 199.710938 L 289.667969 199.710938 L 289.667969 199.976562 C 289.667969 200.484375 289.265625 200.75 288.875 200.75 C 288.484375 200.75 288.09375 200.484375 288.09375 199.976562 L 288.09375 199.710938 L 287.898438 199.710938 C 286.828125 199.710938 285.949219 200.582031 285.949219 201.664062 Z M 285.949219 202.71875 " fill-opacity="1" fill-rule="evenodd"/><path fill="#3b4655" d="M 287.304688 203.046875 C 287.214844 203.046875 287.144531 202.972656 287.144531 202.882812 L 287.144531 202.09375 C 287.144531 202.003906 287.214844 201.929688 287.304688 201.929688 C 287.394531 201.929688 287.46875 202.003906 287.46875 202.09375 L 287.46875 202.882812 C 287.46875 202.972656 287.394531 203.046875 287.304688 203.046875 Z M 287.304688 203.046875 " fill-opacity="1" fill-rule="evenodd"/><path fill="#3b4655" d="M 290.457031 203.046875 C 290.367188 203.046875 290.292969 202.972656 290.292969 202.882812 L 290.292969 202.09375 C 290.292969 202.003906 290.367188 201.929688 290.457031 201.929688 C 290.542969 201.929688 290.617188 202.003906 290.617188 202.09375 L 290.617188 202.882812 C 290.617188 202.972656 290.542969 203.046875 290.457031 203.046875 Z M 290.457031 203.046875 " fill-opacity="1" fill-rule="evenodd"/><path fill="#3b4655" d="M 288.875 200.75 C 288.484375 200.75 288.09375 200.484375 288.09375 199.976562 L 288.09375 199.058594 C 288.09375 199 288.121094 198.953125 288.160156 198.921875 C 288.203125 198.886719 288.257812 198.886719 288.308594 198.902344 C 288.691406 199.027344 289.113281 199.019531 289.4375 198.878906 C 289.488281 198.855469 289.542969 198.863281 289.59375 198.894531 C 289.640625 198.921875 289.667969 198.976562 289.667969 199.027344 L 289.667969 199.976562 C 289.667969 200.484375 289.265625 200.75 288.875 200.75 Z M 288.421875 199.269531 L 288.421875 199.976562 C 288.421875 200.289062 288.648438 200.425781 288.875 200.425781 C 289.113281 200.425781 289.339844 200.289062 289.339844 199.976562 L 289.339844 199.253906 C 289.046875 199.335938 288.730469 199.335938 288.421875 199.269531 Z M 288.421875 199.269531 " fill-opacity="1" fill-rule="evenodd"/><path fill="#3b4655" d="M 297.699219 197.644531 C 297.679688 197.644531 297.671875 197.644531 297.664062 197.644531 C 297.589844 197.625 297.535156 197.570312 297.535156 197.496094 C 297.511719 197.226562 297.394531 196.578125 297.070312 196.332031 L 296.980469 196.660156 C 296.964844 196.714844 296.917969 196.765625 296.859375 196.773438 C 296.800781 196.789062 296.738281 196.765625 296.695312 196.714844 C 296.695312 196.707031 296.460938 196.414062 296.078125 196.277344 L 296.242188 196.59375 C 296.273438 196.648438 296.265625 196.722656 296.214844 196.78125 C 296.167969 196.828125 296.09375 196.84375 296.027344 196.8125 C 295.90625 196.757812 295.582031 196.632812 295.304688 196.625 C 295.335938 196.835938 295.28125 197.1875 294.847656 197.59375 C 294.816406 197.636719 294.769531 197.652344 294.710938 197.644531 C 294.664062 197.636719 294.621094 197.601562 294.597656 197.554688 C 293.90625 196.269531 294.359375 195.601562 294.695312 195.324219 C 295.027344 195.039062 295.53125 194.894531 296.070312 194.917969 C 296.605469 194.941406 297.121094 195.113281 297.484375 195.40625 C 298.136719 195.917969 298.265625 196.707031 297.84375 197.554688 C 297.8125 197.609375 297.753906 197.644531 297.699219 197.644531 Z M 295.972656 195.242188 C 295.558594 195.242188 295.167969 195.355469 294.90625 195.574219 C 294.492188 195.917969 294.449219 196.488281 294.777344 197.203125 C 295.085938 196.828125 294.972656 196.59375 294.957031 196.570312 C 294.921875 196.527344 294.914062 196.472656 294.9375 196.414062 C 294.957031 196.367188 295.003906 196.332031 295.0625 196.316406 C 295.28125 196.277344 295.539062 196.316406 295.761719 196.382812 L 295.621094 196.121094 C 295.597656 196.074219 295.597656 196.007812 295.628906 195.957031 C 295.664062 195.910156 295.71875 195.878906 295.777344 195.886719 C 296.207031 195.917969 296.542969 196.128906 296.738281 196.300781 L 296.800781 196.054688 C 296.808594 196.015625 296.84375 195.984375 296.875 195.957031 C 296.917969 195.933594 296.964844 195.933594 297.003906 195.941406 C 297.414062 196.0625 297.625 196.488281 297.738281 196.855469 C 297.820312 196.382812 297.664062 195.964844 297.28125 195.664062 C 296.933594 195.390625 296.4375 195.242188 295.972656 195.242188 Z M 295.972656 195.242188 " fill-opacity="1" fill-rule="evenodd"/><path fill="#3b4655" d="M 296.214844 199.320312 C 295.792969 199.320312 295.394531 199.179688 295.09375 198.929688 C 294.75 198.644531 294.574219 198.238281 294.574219 197.757812 L 294.574219 197.480469 C 294.574219 197.390625 294.644531 197.316406 294.734375 197.316406 C 294.824219 197.316406 294.898438 197.390625 294.898438 197.480469 L 294.898438 197.757812 C 294.898438 198.601562 295.582031 198.992188 296.214844 198.992188 C 296.851562 198.992188 297.535156 198.601562 297.535156 197.757812 L 297.535156 197.480469 C 297.535156 197.390625 297.609375 197.316406 297.699219 197.316406 C 297.785156 197.316406 297.859375 197.390625 297.859375 197.480469 L 297.859375 197.757812 C 297.859375 198.238281 297.679688 198.644531 297.339844 198.929688 C 297.039062 199.179688 296.640625 199.320312 296.214844 199.320312 Z M 296.214844 199.320312 " fill-opacity="1" fill-rule="evenodd"/><path fill="#3b4655" d="M 299.347656 203.046875 L 293.164062 203.046875 C 293.074219 203.046875 293.003906 202.972656 293.003906 202.882812 L 293.003906 201.664062 C 293.003906 200.402344 294.027344 199.382812 295.28125 199.382812 L 295.628906 199.382812 C 295.71875 199.382812 295.792969 199.457031 295.792969 199.546875 L 295.792969 199.976562 C 295.792969 200.289062 296.027344 200.425781 296.257812 200.425781 C 296.484375 200.425781 296.722656 200.289062 296.722656 199.976562 L 296.722656 199.546875 C 296.722656 199.457031 296.792969 199.382812 296.882812 199.382812 L 297.234375 199.382812 C 298.488281 199.382812 299.511719 200.402344 299.511719 201.664062 L 299.511719 202.882812 C 299.511719 202.972656 299.4375 203.046875 299.347656 203.046875 Z M 293.328125 202.71875 L 299.1875 202.71875 L 299.1875 201.664062 C 299.1875 200.582031 298.308594 199.710938 297.234375 199.710938 L 297.046875 199.710938 L 297.046875 199.976562 C 297.046875 200.484375 296.648438 200.75 296.257812 200.75 C 295.867188 200.75 295.46875 200.484375 295.46875 199.976562 L 295.46875 199.710938 L 295.28125 199.710938 C 294.207031 199.710938 293.328125 200.582031 293.328125 201.664062 Z M 293.328125 202.71875 " fill-opacity="1" fill-rule="evenodd"/><path fill="#3b4655" d="M 294.6875 203.046875 C 294.597656 203.046875 294.523438 202.972656 294.523438 202.882812 L 294.523438 202.09375 C 294.523438 202.003906 294.597656 201.929688 294.6875 201.929688 C 294.777344 201.929688 294.847656 202.003906 294.847656 202.09375 L 294.847656 202.882812 C 294.847656 202.972656 294.777344 203.046875 294.6875 203.046875 Z M 294.6875 203.046875 " fill-opacity="1" fill-rule="evenodd"/><path fill="#3b4655" d="M 297.828125 203.046875 C 297.738281 203.046875 297.664062 202.972656 297.664062 202.882812 L 297.664062 202.09375 C 297.664062 202.003906 297.738281 201.929688 297.828125 201.929688 C 297.917969 201.929688 297.992188 202.003906 297.992188 202.09375 L 297.992188 202.882812 C 297.992188 202.972656 297.917969 203.046875 297.828125 203.046875 Z M 297.828125 203.046875 " fill-opacity="1" fill-rule="evenodd"/><path fill="#3b4655" d="M 296.257812 200.75 C 295.867188 200.75 295.46875 200.484375 295.46875 199.976562 L 295.46875 199.058594 C 295.46875 199 295.492188 198.953125 295.539062 198.921875 C 295.582031 198.894531 295.636719 198.886719 295.6875 198.902344 C 296.0625 199.027344 296.484375 199.019531 296.820312 198.878906 C 296.867188 198.855469 296.925781 198.863281 296.972656 198.894531 C 297.015625 198.921875 297.046875 198.976562 297.046875 199.027344 L 297.046875 199.976562 C 297.046875 200.484375 296.648438 200.75 296.257812 200.75 Z M 295.792969 199.269531 L 295.792969 199.976562 C 295.792969 200.289062 296.027344 200.425781 296.257812 200.425781 C 296.484375 200.425781 296.722656 200.289062 296.722656 199.976562 L 296.722656 199.253906 C 296.429688 199.335938 296.109375 199.335938 295.792969 199.269531 Z M 295.792969 199.269531 " fill-opacity="1" fill-rule="evenodd"/><path fill="#3b4655" d="M 292.570312 195.558594 C 291.726562 195.558594 290.925781 195.226562 290.324219 194.625 C 289.722656 194.023438 289.398438 193.222656 289.398438 192.386719 C 289.398438 191.53125 289.722656 190.726562 290.324219 190.132812 C 290.925781 189.539062 291.726562 189.214844 292.570312 189.214844 C 293.417969 189.214844 294.207031 189.539062 294.808594 190.132812 C 295.410156 190.726562 295.746094 191.53125 295.746094 192.386719 C 295.746094 193.222656 295.410156 194.023438 294.808594 194.625 C 294.207031 195.226562 293.410156 195.558594 292.570312 195.558594 Z M 292.570312 189.539062 C 291 189.539062 289.722656 190.816406 289.722656 192.386719 C 289.722656 193.957031 291 195.234375 292.570312 195.234375 C 294.140625 195.234375 295.417969 193.957031 295.417969 192.386719 C 295.417969 190.816406 294.140625 189.539062 292.570312 189.539062 Z M 292.570312 189.539062 " fill-opacity="1" fill-rule="evenodd"/><path fill="#3b4655" d="M 291.253906 193.207031 L 290.375 193.207031 C 290.285156 193.207031 290.210938 193.136719 290.210938 193.046875 L 290.210938 192.167969 C 290.210938 192.078125 290.285156 192.003906 290.375 192.003906 L 291.253906 192.003906 C 291.34375 192.003906 291.414062 192.078125 291.414062 192.167969 L 291.414062 193.046875 C 291.414062 193.136719 291.34375 193.207031 291.253906 193.207031 Z M 290.535156 192.882812 L 291.089844 192.882812 L 291.089844 192.328125 L 290.535156 192.328125 Z M 290.535156 192.882812 " fill-opacity="1" fill-rule="evenodd"/><path fill="#3b4655" d="M 293.011719 193.207031 L 292.132812 193.207031 C 292.042969 193.207031 291.96875 193.136719 291.96875 193.046875 L 291.96875 192.167969 C 291.96875 192.078125 292.042969 192.003906 292.132812 192.003906 L 293.011719 192.003906 C 293.101562 192.003906 293.171875 192.078125 293.171875 192.167969 L 293.171875 193.046875 C 293.171875 193.136719 293.101562 193.207031 293.011719 193.207031 Z M 292.292969 192.882812 L 292.847656 192.882812 L 292.847656 192.328125 L 292.292969 192.328125 Z M 292.292969 192.882812 " fill-opacity="1" fill-rule="evenodd"/><path fill="#3b4655" d="M 294.777344 193.207031 L 293.898438 193.207031 C 293.808594 193.207031 293.734375 193.136719 293.734375 193.046875 L 293.734375 192.167969 C 293.734375 192.078125 293.808594 192.003906 293.898438 192.003906 L 294.777344 192.003906 C 294.867188 192.003906 294.9375 192.078125 294.9375 192.167969 L 294.9375 193.046875 C 294.9375 193.136719 294.867188 193.207031 294.777344 193.207031 Z M 294.058594 192.882812 L 294.613281 192.882812 L 294.613281 192.328125 L 294.058594 192.328125 Z M 294.058594 192.882812 " fill-opacity="1" fill-rule="evenodd"/><path fill="#3b4655" d="M 292.117188 192.335938 L 291.238281 192.335938 C 291.148438 192.335938 291.074219 192.265625 291.074219 192.175781 L 291.074219 191.296875 C 291.074219 191.207031 291.148438 191.132812 291.238281 191.132812 L 292.117188 191.132812 C 292.203125 191.132812 292.277344 191.207031 292.277344 191.296875 L 292.277344 192.175781 C 292.277344 192.265625 292.203125 192.335938 292.117188 192.335938 Z M 291.398438 192.011719 L 291.953125 192.011719 L 291.953125 191.457031 L 291.398438 191.457031 Z M 291.398438 192.011719 " fill-opacity="1" fill-rule="evenodd"/><path fill="#3b4655" d="M 293.882812 192.335938 L 293.003906 192.335938 C 292.914062 192.335938 292.839844 192.265625 292.839844 192.175781 L 292.839844 191.296875 C 292.839844 191.207031 292.914062 191.132812 293.003906 191.132812 L 293.882812 191.132812 C 293.96875 191.132812 294.042969 191.207031 294.042969 191.296875 L 294.042969 192.175781 C 294.042969 192.265625 293.96875 192.335938 293.882812 192.335938 Z M 293.164062 192.011719 L 293.71875 192.011719 L 293.71875 191.457031 L 293.164062 191.457031 Z M 293.164062 192.011719 " fill-opacity="1" fill-rule="evenodd"/><g clip-path="url(#98a254253d)"><path fill="#ffffff" d="M 307.417969 195.886719 C 307.417969 196.882812 307.324219 197.863281 307.128906 198.839844 C 306.933594 199.8125 306.648438 200.757812 306.269531 201.675781 C 305.886719 202.59375 305.421875 203.464844 304.871094 204.289062 C 304.320312 205.117188 303.691406 205.878906 302.988281 206.582031 C 302.289062 207.285156 301.523438 207.910156 300.699219 208.460938 C 299.871094 209.015625 299 209.480469 298.082031 209.859375 C 297.167969 210.238281 296.222656 210.527344 295.246094 210.71875 C 294.273438 210.914062 293.289062 211.011719 292.296875 211.011719 C 291.304688 211.011719 290.320312 210.914062 289.347656 210.71875 C 288.371094 210.527344 287.425781 210.238281 286.507812 209.859375 C 285.59375 209.480469 284.71875 209.015625 283.894531 208.460938 C 283.070312 207.910156 282.304688 207.285156 281.601562 206.582031 C 280.902344 205.878906 280.273438 205.117188 279.722656 204.289062 C 279.171875 203.464844 278.703125 202.59375 278.324219 201.675781 C 277.945312 200.757812 277.65625 199.8125 277.464844 198.839844 C 277.269531 197.863281 277.171875 196.882812 277.171875 195.886719 C 277.171875 194.894531 277.269531 193.910156 277.464844 192.9375 C 277.65625 191.964844 277.945312 191.019531 278.324219 190.101562 C 278.703125 189.183594 279.171875 188.3125 279.722656 187.484375 C 280.273438 186.660156 280.902344 185.898438 281.601562 185.195312 C 282.304688 184.492188 283.070312 183.867188 283.894531 183.3125 C 284.71875 182.761719 285.59375 182.296875 286.507812 181.917969 C 287.425781 181.535156 288.371094 181.25 289.347656 181.054688 C 290.320312 180.863281 291.304688 180.765625 292.296875 180.765625 C 293.289062 180.765625 294.273438 180.863281 295.246094 181.054688 C 296.222656 181.25 297.167969 181.535156 298.082031 181.917969 C 299 182.296875 299.871094 182.761719 300.699219 183.3125 C 301.523438 183.867188 302.289062 184.492188 302.988281 185.195312 C 303.691406 185.898438 304.320312 186.660156 304.871094 187.484375 C 305.421875 188.3125 305.886719 189.183594 306.269531 190.101562 C 306.648438 191.019531 306.933594 191.964844 307.128906 192.9375 C 307.324219 193.910156 307.417969 194.894531 307.417969 195.886719 Z M 307.417969 195.886719 " fill-opacity="1" fill-rule="nonzero"/></g><path fill="#3b4655" d="M 292.296875 182.589844 C 299.652344 182.589844 305.585938 188.546875 305.585938 195.886719 C 305.585938 203.246094 299.652344 209.179688 292.296875 209.179688 C 284.957031 209.179688 278.996094 203.246094 278.996094 195.886719 C 278.996094 188.546875 284.957031 182.589844 292.296875 182.589844 Z M 292.296875 183.648438 C 299.046875 183.648438 304.527344 189.128906 304.527344 195.886719 C 304.527344 202.636719 299.046875 208.117188 292.296875 208.117188 C 285.539062 208.117188 280.058594 202.636719 280.058594 195.886719 C 280.058594 189.128906 285.539062 183.648438 292.296875 183.648438 Z M 292.296875 183.648438 " fill-opacity="1" fill-rule="evenodd"/><path fill="#3b4655" d="M 292.296875 181.808594 C 300.070312 181.808594 306.367188 188.121094 306.367188 195.886719 C 306.367188 203.664062 300.070312 209.957031 292.296875 209.957031 C 284.53125 209.957031 278.21875 203.664062 278.21875 195.886719 C 278.21875 188.121094 284.53125 181.808594 292.296875 181.808594 Z M 292.296875 182.589844 C 299.652344 182.589844 305.585938 188.546875 305.585938 195.886719 C 305.585938 203.246094 299.652344 209.179688 292.296875 209.179688 C 284.957031 209.179688 278.996094 203.246094 278.996094 195.886719 C 278.996094 188.546875 284.957031 182.589844 292.296875 182.589844 Z M 292.296875 182.589844 " fill-opacity="1" fill-rule="evenodd"/><path fill="#3b4655" d="M 297.015625 195.070312 C 296.914062 195.070312 296.832031 194.988281 296.832031 194.890625 L 296.832031 192.441406 C 296.832031 192.140625 296.570312 191.894531 296.253906 191.894531 L 295.652344 191.894531 C 295.554688 191.894531 295.472656 191.816406 295.472656 191.714844 C 295.472656 191.613281 295.554688 191.535156 295.652344 191.535156 L 296.253906 191.535156 C 296.769531 191.535156 297.195312 191.941406 297.195312 192.441406 L 297.195312 194.890625 C 297.195312 194.988281 297.113281 195.070312 297.015625 195.070312 Z M 287.578125 194.917969 C 287.480469 194.917969 287.398438 194.835938 287.398438 194.734375 L 287.398438 192.441406 C 287.398438 191.941406 287.816406 191.535156 288.332031 191.535156 L 288.941406 191.535156 C 289.039062 191.535156 289.121094 191.613281 289.121094 191.714844 C 289.121094 191.816406 289.039062 191.894531 288.941406 191.894531 L 288.332031 191.894531 C 288.015625 191.894531 287.761719 192.140625 287.761719 192.441406 L 287.761719 194.734375 C 287.761719 194.835938 287.679688 194.917969 287.578125 194.917969 Z M 287.578125 194.917969 " fill-opacity="1" fill-rule="evenodd"/><path fill="#3b4655" d="M 289.785156 197.574219 C 289.773438 197.574219 289.757812 197.574219 289.746094 197.574219 C 289.664062 197.558594 289.609375 197.492188 289.601562 197.414062 C 289.585938 197.113281 289.449219 196.386719 289.085938 196.113281 L 288.996094 196.476562 C 288.976562 196.542969 288.921875 196.59375 288.847656 196.605469 C 288.785156 196.621094 288.714844 196.59375 288.675781 196.542969 C 288.667969 196.53125 288.40625 196.207031 287.976562 196.050781 L 288.160156 196.40625 C 288.195312 196.46875 288.1875 196.550781 288.132812 196.613281 C 288.078125 196.667969 287.996094 196.6875 287.925781 196.648438 C 287.789062 196.585938 287.425781 196.449219 287.125 196.441406 C 287.152344 196.675781 287.089844 197.066406 286.617188 197.519531 C 286.570312 197.566406 286.519531 197.585938 286.464844 197.574219 C 286.410156 197.566406 286.355469 197.53125 286.328125 197.476562 C 285.554688 196.042969 286.0625 195.296875 286.445312 194.988281 C 286.808594 194.671875 287.371094 194.507812 287.976562 194.535156 C 288.566406 194.5625 289.140625 194.753906 289.558594 195.082031 C 290.28125 195.652344 290.429688 196.53125 289.945312 197.476562 C 289.910156 197.539062 289.847656 197.574219 289.785156 197.574219 Z M 287.859375 194.898438 C 287.40625 194.898438 286.960938 195.027344 286.671875 195.269531 C 286.21875 195.652344 286.164062 196.289062 286.535156 197.085938 C 286.871094 196.667969 286.746094 196.40625 286.726562 196.378906 C 286.691406 196.332031 286.691406 196.269531 286.707031 196.207031 C 286.726562 196.152344 286.78125 196.113281 286.84375 196.097656 C 287.089844 196.050781 287.386719 196.097656 287.625 196.167969 L 287.46875 195.878906 C 287.441406 195.824219 287.441406 195.75 287.480469 195.699219 C 287.515625 195.644531 287.578125 195.605469 287.652344 195.617188 C 288.125 195.652344 288.496094 195.886719 288.714844 196.078125 L 288.785156 195.804688 C 288.804688 195.761719 288.832031 195.726562 288.875 195.699219 C 288.914062 195.671875 288.96875 195.671875 289.011719 195.679688 C 289.464844 195.816406 289.703125 196.289062 289.828125 196.695312 C 289.917969 196.167969 289.746094 195.707031 289.320312 195.371094 C 288.929688 195.0625 288.386719 194.898438 287.859375 194.898438 Z M 287.859375 194.898438 " fill-opacity="1" fill-rule="evenodd"/><path stroke-linecap="butt" transform="matrix(0.00907201, 0, 0, 0.00907201, 277.173531, 180.764974)" fill-opacity="1" fill="#3b4655" fill-rule="evenodd" stroke-linejoin="miter" d="M 1208.031858 2059.117156 C 1155.931379 2059.117156 1106.844978 2041.893857 1071.106633 2010.89192 C 1028.909551 1976.01474 1006.949845 1926.067173 1006.949845 1867.077375 L 1006.949845 1833.06136 C 1006.949845 1821.866216 1015.992077 1812.823984 1027.187221 1812.823984 C 1037.951783 1812.823984 1046.994014 1821.866216 1046.994014 1833.06136 L 1046.994014 1867.077375 C 1046.994014 1970.84775 1130.096431 2019.072986 1208.031858 2019.072986 C 1285.967285 2019.072986 1369.930866 1970.84775 1369.930866 1867.077375 L 1369.930866 1833.06136 C 1369.930866 1821.866216 1378.973098 1812.823984 1390.168242 1812.823984 C 1400.932804 1812.823984 1409.975036 1821.866216 1409.975036 1833.06136 L 1409.975036 1867.077375 C 1409.975036 1926.067173 1388.01533 1976.01474 1345.818248 2010.89192 C 1310.079903 2041.893857 1260.993502 2059.117156 1208.031858 2059.117156 Z M 1208.031858 2059.117156 " stroke="#4d4d4d" stroke-width="3" stroke-opacity="1" stroke-miterlimit="4"/><path fill="#3b4655" d="M 291.625 203.597656 L 284.730469 203.597656 C 284.628906 203.597656 284.550781 203.519531 284.550781 203.417969 L 284.550781 202.058594 C 284.550781 200.652344 285.691406 199.515625 287.089844 199.515625 L 287.488281 199.515625 C 287.589844 199.515625 287.667969 199.597656 287.667969 199.699219 L 287.667969 200.179688 C 287.667969 200.523438 287.925781 200.679688 288.179688 200.679688 C 288.441406 200.679688 288.695312 200.523438 288.695312 200.179688 L 288.695312 199.699219 C 288.695312 199.597656 288.777344 199.515625 288.875 199.515625 L 289.265625 199.515625 C 290.671875 199.515625 291.808594 200.652344 291.808594 202.058594 L 291.808594 203.417969 C 291.808594 203.519531 291.726562 203.597656 291.625 203.597656 Z M 284.910156 203.238281 L 291.445312 203.238281 L 291.445312 202.058594 C 291.445312 200.851562 290.472656 199.878906 289.265625 199.878906 L 289.058594 199.878906 L 289.058594 200.179688 C 289.058594 200.742188 288.613281 201.039062 288.179688 201.039062 C 287.742188 201.039062 287.308594 200.742188 287.308594 200.179688 L 287.308594 199.878906 L 287.089844 199.878906 C 285.890625 199.878906 284.910156 200.851562 284.910156 202.058594 Z M 284.910156 203.238281 " fill-opacity="1" fill-rule="evenodd"/><path fill="#3b4655" d="M 286.425781 203.597656 C 286.328125 203.597656 286.246094 203.519531 286.246094 203.417969 L 286.246094 202.539062 C 286.246094 202.4375 286.328125 202.355469 286.425781 202.355469 C 286.527344 202.355469 286.609375 202.4375 286.609375 202.539062 L 286.609375 203.417969 C 286.609375 203.519531 286.527344 203.597656 286.425781 203.597656 Z M 286.425781 203.597656 " fill-opacity="1" fill-rule="evenodd"/><path fill="#3b4655" d="M 289.9375 203.597656 C 289.839844 203.597656 289.757812 203.519531 289.757812 203.417969 L 289.757812 202.539062 C 289.757812 202.4375 289.839844 202.355469 289.9375 202.355469 C 290.039062 202.355469 290.121094 202.4375 290.121094 202.539062 L 290.121094 203.417969 C 290.121094 203.519531 290.039062 203.597656 289.9375 203.597656 Z M 289.9375 203.597656 " fill-opacity="1" fill-rule="evenodd"/><path fill="#3b4655" d="M 288.179688 201.039062 C 287.742188 201.039062 287.308594 200.742188 287.308594 200.179688 L 287.308594 199.152344 C 287.308594 199.089844 287.335938 199.035156 287.378906 199 C 287.425781 198.964844 287.488281 198.964844 287.542969 198.980469 C 287.96875 199.117188 288.441406 199.109375 288.804688 198.953125 C 288.859375 198.925781 288.921875 198.9375 288.976562 198.972656 C 289.03125 199 289.058594 199.0625 289.058594 199.117188 L 289.058594 200.179688 C 289.058594 200.742188 288.613281 201.039062 288.179688 201.039062 Z M 287.667969 199.390625 L 287.667969 200.179688 C 287.667969 200.523438 287.925781 200.679688 288.179688 200.679688 C 288.441406 200.679688 288.695312 200.523438 288.695312 200.179688 L 288.695312 199.371094 C 288.367188 199.460938 288.015625 199.460938 287.667969 199.390625 Z M 287.667969 199.390625 " fill-opacity="1" fill-rule="evenodd"/><path fill="#3b4655" d="M 298.011719 197.574219 C 297.992188 197.574219 297.984375 197.574219 297.976562 197.574219 C 297.894531 197.558594 297.832031 197.492188 297.832031 197.414062 C 297.804688 197.113281 297.675781 196.386719 297.3125 196.113281 L 297.214844 196.476562 C 297.195312 196.542969 297.140625 196.59375 297.078125 196.605469 C 297.015625 196.621094 296.941406 196.59375 296.894531 196.542969 C 296.894531 196.53125 296.632812 196.207031 296.207031 196.050781 L 296.386719 196.40625 C 296.425781 196.46875 296.414062 196.550781 296.359375 196.613281 C 296.304688 196.667969 296.226562 196.6875 296.152344 196.648438 C 296.015625 196.585938 295.652344 196.449219 295.34375 196.441406 C 295.382812 196.675781 295.316406 197.066406 294.835938 197.519531 C 294.800781 197.566406 294.746094 197.585938 294.683594 197.574219 C 294.628906 197.566406 294.582031 197.53125 294.554688 197.476562 C 293.785156 196.042969 294.292969 195.296875 294.664062 194.988281 C 295.035156 194.671875 295.597656 194.507812 296.199219 194.535156 C 296.796875 194.5625 297.367188 194.753906 297.777344 195.082031 C 298.5 195.652344 298.648438 196.53125 298.175781 197.476562 C 298.140625 197.539062 298.074219 197.574219 298.011719 197.574219 Z M 296.089844 194.898438 C 295.625 194.898438 295.191406 195.027344 294.898438 195.269531 C 294.4375 195.652344 294.390625 196.289062 294.753906 197.085938 C 295.101562 196.667969 294.972656 196.40625 294.953125 196.378906 C 294.917969 196.332031 294.910156 196.269531 294.9375 196.207031 C 294.953125 196.152344 295.007812 196.113281 295.074219 196.097656 C 295.316406 196.050781 295.609375 196.097656 295.851562 196.167969 L 295.699219 195.878906 C 295.671875 195.824219 295.671875 195.75 295.707031 195.699219 C 295.742188 195.644531 295.808594 195.605469 295.871094 195.617188 C 296.351562 195.652344 296.722656 195.886719 296.941406 196.078125 L 297.015625 195.804688 C 297.023438 195.761719 297.058594 195.726562 297.09375 195.699219 C 297.140625 195.671875 297.195312 195.671875 297.242188 195.679688 C 297.695312 195.816406 297.929688 196.289062 298.058594 196.695312 C 298.148438 196.167969 297.976562 195.707031 297.550781 195.371094 C 297.160156 195.0625 296.605469 194.898438 296.089844 194.898438 Z M 296.089844 194.898438 " fill-opacity="1" fill-rule="evenodd"/><path fill="#3b4655" d="M 296.359375 199.445312 C 295.890625 199.445312 295.445312 199.289062 295.109375 199.007812 C 294.726562 198.691406 294.527344 198.238281 294.527344 197.703125 L 294.527344 197.394531 C 294.527344 197.292969 294.609375 197.210938 294.710938 197.210938 C 294.808594 197.210938 294.890625 197.292969 294.890625 197.394531 L 294.890625 197.703125 C 294.890625 198.644531 295.652344 199.082031 296.359375 199.082031 C 297.070312 199.082031 297.832031 198.644531 297.832031 197.703125 L 297.832031 197.394531 C 297.832031 197.292969 297.914062 197.210938 298.011719 197.210938 C 298.113281 197.210938 298.195312 197.292969 298.195312 197.394531 L 298.195312 197.703125 C 298.195312 198.238281 297.992188 198.691406 297.613281 199.007812 C 297.277344 199.289062 296.832031 199.445312 296.359375 199.445312 Z M 296.359375 199.445312 " fill-opacity="1" fill-rule="evenodd"/><path fill="#3b4655" d="M 299.855469 203.597656 L 292.957031 203.597656 C 292.859375 203.597656 292.777344 203.519531 292.777344 203.417969 L 292.777344 202.058594 C 292.777344 200.652344 293.921875 199.515625 295.316406 199.515625 L 295.707031 199.515625 C 295.808594 199.515625 295.890625 199.597656 295.890625 199.699219 L 295.890625 200.179688 C 295.890625 200.523438 296.152344 200.679688 296.40625 200.679688 C 296.660156 200.679688 296.921875 200.523438 296.921875 200.179688 L 296.921875 199.699219 C 296.921875 199.597656 297.003906 199.515625 297.105469 199.515625 L 297.496094 199.515625 C 298.890625 199.515625 300.035156 200.652344 300.035156 202.058594 L 300.035156 203.417969 C 300.035156 203.519531 299.953125 203.597656 299.855469 203.597656 Z M 293.140625 203.238281 L 299.671875 203.238281 L 299.671875 202.058594 C 299.671875 200.851562 298.691406 199.878906 297.496094 199.878906 L 297.285156 199.878906 L 297.285156 200.179688 C 297.285156 200.742188 296.839844 201.039062 296.40625 201.039062 C 295.972656 201.039062 295.527344 200.742188 295.527344 200.179688 L 295.527344 199.878906 L 295.316406 199.878906 C 294.121094 199.878906 293.140625 200.851562 293.140625 202.058594 Z M 293.140625 203.238281 " fill-opacity="1" fill-rule="evenodd"/><path fill="#3b4655" d="M 294.65625 203.597656 C 294.554688 203.597656 294.472656 203.519531 294.472656 203.417969 L 294.472656 202.539062 C 294.472656 202.4375 294.554688 202.355469 294.65625 202.355469 C 294.753906 202.355469 294.835938 202.4375 294.835938 202.539062 L 294.835938 203.417969 C 294.835938 203.519531 294.753906 203.597656 294.65625 203.597656 Z M 294.65625 203.597656 " fill-opacity="1" fill-rule="evenodd"/><path fill="#3b4655" d="M 298.15625 203.597656 C 298.058594 203.597656 297.976562 203.519531 297.976562 203.417969 L 297.976562 202.539062 C 297.976562 202.4375 298.058594 202.355469 298.15625 202.355469 C 298.257812 202.355469 298.339844 202.4375 298.339844 202.539062 L 298.339844 203.417969 C 298.339844 203.519531 298.257812 203.597656 298.15625 203.597656 Z M 298.15625 203.597656 " fill-opacity="1" fill-rule="evenodd"/><path fill="#3b4655" d="M 296.40625 201.039062 C 295.972656 201.039062 295.527344 200.742188 295.527344 200.179688 L 295.527344 199.152344 C 295.527344 199.089844 295.554688 199.035156 295.609375 199 C 295.652344 198.972656 295.714844 198.964844 295.769531 198.980469 C 296.1875 199.117188 296.660156 199.109375 297.03125 198.953125 C 297.085938 198.925781 297.148438 198.9375 297.203125 198.972656 C 297.25 199 297.285156 199.0625 297.285156 199.117188 L 297.285156 200.179688 C 297.285156 200.742188 296.839844 201.039062 296.40625 201.039062 Z M 295.890625 199.390625 L 295.890625 200.179688 C 295.890625 200.523438 296.152344 200.679688 296.40625 200.679688 C 296.660156 200.679688 296.921875 200.523438 296.921875 200.179688 L 296.921875 199.371094 C 296.597656 199.460938 296.242188 199.460938 295.890625 199.390625 Z M 295.890625 199.390625 " fill-opacity="1" fill-rule="evenodd"/><path fill="#3b4655" d="M 292.296875 195.253906 C 291.351562 195.253906 290.464844 194.882812 289.792969 194.210938 C 289.121094 193.539062 288.757812 192.648438 288.757812 191.714844 C 288.757812 190.761719 289.121094 189.863281 289.792969 189.203125 C 290.464844 188.539062 291.351562 188.175781 292.296875 188.175781 C 293.238281 188.175781 294.121094 188.539062 294.792969 189.203125 C 295.460938 189.863281 295.835938 190.761719 295.835938 191.714844 C 295.835938 192.648438 295.460938 193.539062 294.792969 194.210938 C 294.121094 194.882812 293.230469 195.253906 292.296875 195.253906 Z M 292.296875 188.539062 C 290.546875 188.539062 289.121094 189.964844 289.121094 191.714844 C 289.121094 193.464844 290.546875 194.890625 292.296875 194.890625 C 294.046875 194.890625 295.472656 193.464844 295.472656 191.714844 C 295.472656 189.964844 294.046875 188.539062 292.296875 188.539062 Z M 292.296875 188.539062 " fill-opacity="1" fill-rule="evenodd"/><path fill="#3b4655" d="M 290.828125 192.632812 L 289.847656 192.632812 C 289.746094 192.632812 289.664062 192.550781 289.664062 192.449219 L 289.664062 191.46875 C 289.664062 191.371094 289.746094 191.289062 289.847656 191.289062 L 290.828125 191.289062 C 290.925781 191.289062 291.007812 191.371094 291.007812 191.46875 L 291.007812 192.449219 C 291.007812 192.550781 290.925781 192.632812 290.828125 192.632812 Z M 290.027344 192.269531 L 290.644531 192.269531 L 290.644531 191.652344 L 290.027344 191.652344 Z M 290.027344 192.269531 " fill-opacity="1" fill-rule="evenodd"/><path fill="#3b4655" d="M 292.785156 192.632812 L 291.808594 192.632812 C 291.707031 192.632812 291.625 192.550781 291.625 192.449219 L 291.625 191.46875 C 291.625 191.371094 291.707031 191.289062 291.808594 191.289062 L 292.785156 191.289062 C 292.886719 191.289062 292.96875 191.371094 292.96875 191.46875 L 292.96875 192.449219 C 292.96875 192.550781 292.886719 192.632812 292.785156 192.632812 Z M 291.988281 192.269531 L 292.605469 192.269531 L 292.605469 191.652344 L 291.988281 191.652344 Z M 291.988281 192.269531 " fill-opacity="1" fill-rule="evenodd"/><path fill="#3b4655" d="M 294.753906 192.632812 L 293.773438 192.632812 C 293.675781 192.632812 293.59375 192.550781 293.59375 192.449219 L 293.59375 191.46875 C 293.59375 191.371094 293.675781 191.289062 293.773438 191.289062 L 294.753906 191.289062 C 294.855469 191.289062 294.9375 191.371094 294.9375 191.46875 L 294.9375 192.449219 C 294.9375 192.550781 294.855469 192.632812 294.753906 192.632812 Z M 293.957031 192.269531 L 294.574219 192.269531 L 294.574219 191.652344 L 293.957031 191.652344 Z M 293.957031 192.269531 " fill-opacity="1" fill-rule="evenodd"/><path fill="#3b4655" d="M 291.789062 191.660156 L 290.808594 191.660156 C 290.707031 191.660156 290.628906 191.578125 290.628906 191.480469 L 290.628906 190.5 C 290.628906 190.398438 290.707031 190.316406 290.808594 190.316406 L 291.789062 190.316406 C 291.886719 190.316406 291.96875 190.398438 291.96875 190.5 L 291.96875 191.480469 C 291.96875 191.578125 291.886719 191.660156 291.789062 191.660156 Z M 290.988281 191.296875 L 291.605469 191.296875 L 291.605469 190.679688 L 290.988281 190.679688 Z M 290.988281 191.296875 " fill-opacity="1" fill-rule="evenodd"/><path fill="#3b4655" d="M 293.757812 191.660156 L 292.777344 191.660156 C 292.675781 191.660156 292.597656 191.578125 292.597656 191.480469 L 292.597656 190.5 C 292.597656 190.398438 292.675781 190.316406 292.777344 190.316406 L 293.757812 190.316406 C 293.855469 190.316406 293.9375 190.398438 293.9375 190.5 L 293.9375 191.480469 C 293.9375 191.578125 293.855469 191.660156 293.757812 191.660156 Z M 292.957031 191.296875 L 293.574219 191.296875 L 293.574219 190.679688 L 292.957031 190.679688 Z M 292.957031 191.296875 " fill-opacity="1" fill-rule="evenodd"/><g clip-path="url(#7e8669f9e7)"><path fill="#3b4655" d="M 295.875 191.582031 C 295.875 193.558594 294.273438 195.164062 292.296875 195.164062 C 290.320312 195.164062 288.714844 193.558594 288.714844 191.582031 C 288.714844 189.605469 290.320312 188.003906 292.296875 188.003906 C 294.273438 188.003906 295.875 189.605469 295.875 191.582031 Z M 295.875 191.582031 " fill-opacity="1" fill-rule="nonzero"/></g><path fill="#ffffff" d="M 290.855469 190.007812 C 290.953125 189.824219 291.148438 189.707031 291.355469 189.707031 L 293.234375 189.707031 C 293.445312 189.707031 293.636719 189.824219 293.738281 190.007812 L 294.214844 190.90625 C 294.234375 190.941406 294.234375 190.980469 294.210938 191.015625 C 294.191406 191.050781 294.15625 191.070312 294.113281 191.070312 L 290.476562 191.070312 C 290.4375 191.070312 290.402344 191.050781 290.378906 191.015625 C 290.359375 190.980469 290.359375 190.941406 290.378906 190.90625 Z M 291.355469 189.933594 C 291.230469 189.933594 291.117188 190.003906 291.054688 190.117188 L 290.667969 190.84375 L 293.925781 190.84375 L 293.535156 190.117188 C 293.476562 190.003906 293.363281 189.933594 293.234375 189.933594 Z M 291.355469 189.933594 " fill-opacity="1" fill-rule="evenodd"/><path fill="#ffffff" d="M 290.25 192.550781 C 290.1875 192.550781 290.136719 192.601562 290.136719 192.664062 L 290.136719 192.890625 C 290.136719 193.203125 290.390625 193.457031 290.707031 193.457031 C 291.019531 193.457031 291.273438 193.203125 291.273438 192.890625 L 291.273438 192.664062 C 291.273438 192.601562 291.222656 192.550781 291.160156 192.550781 Z M 290.25 192.550781 " fill-opacity="1" fill-rule="evenodd"/><path fill="#ffffff" d="M 293.433594 192.550781 C 293.371094 192.550781 293.320312 192.601562 293.320312 192.664062 L 293.320312 192.890625 C 293.320312 193.203125 293.574219 193.457031 293.886719 193.457031 C 294.203125 193.457031 294.457031 193.203125 294.457031 192.890625 L 294.457031 192.664062 C 294.457031 192.601562 294.40625 192.550781 294.34375 192.550781 Z M 293.433594 192.550781 " fill-opacity="1" fill-rule="evenodd"/><path fill="#ffffff" d="M 290.476562 190.84375 C 290.164062 190.84375 289.910156 191.097656 289.910156 191.414062 L 289.910156 192.207031 C 289.910156 192.523438 290.164062 192.777344 290.476562 192.777344 L 294.113281 192.777344 C 294.429688 192.777344 294.683594 192.523438 294.683594 192.207031 L 294.683594 191.414062 C 294.683594 191.097656 294.429688 190.84375 294.113281 190.84375 Z M 293.546875 191.414062 C 293.359375 191.414062 293.207031 191.566406 293.207031 191.753906 C 293.207031 191.941406 293.359375 192.09375 293.546875 192.09375 L 294 192.09375 C 294.191406 192.09375 294.34375 191.941406 294.34375 191.753906 C 294.34375 191.566406 294.191406 191.414062 294 191.414062 Z M 290.25 191.753906 C 290.25 191.566406 290.402344 191.414062 290.589844 191.414062 L 291.046875 191.414062 C 291.234375 191.414062 291.386719 191.566406 291.386719 191.753906 C 291.386719 191.941406 291.234375 192.09375 291.046875 192.09375 L 290.589844 192.09375 C 290.402344 192.09375 290.25 191.941406 290.25 191.753906 Z M 291.5 191.640625 C 291.5 191.578125 291.550781 191.527344 291.613281 191.527344 L 292.976562 191.527344 C 293.042969 191.527344 293.09375 191.578125 293.09375 191.640625 C 293.09375 191.703125 293.042969 191.753906 292.976562 191.753906 L 291.613281 191.753906 C 291.550781 191.753906 291.5 191.703125 291.5 191.640625 Z M 291.839844 191.867188 C 291.777344 191.867188 291.726562 191.917969 291.726562 191.980469 C 291.726562 192.042969 291.777344 192.09375 291.839844 192.09375 L 292.75 192.09375 C 292.8125 192.09375 292.863281 192.042969 292.863281 191.980469 C 292.863281 191.917969 292.8125 191.867188 292.75 191.867188 Z M 291.839844 191.867188 " fill-opacity="1" fill-rule="evenodd"/></svg>